<svg xmlns="http://www.w3.org/2000/svg" width="2000" height="1500" viewBox="0 0 1000 750">
    <defs><clipPath id="land"><path d="M 45.0,92.0 L 955.0,92.0 L 955.0,690.0 L 45.0,690.0 Z"/></clipPath><clipPath id="field"><rect x="45" y="92" width="910" height="598" rx="3"/></clipPath>
    <pattern id="grain" width="37" height="31" patternUnits="userSpaceOnUse"><circle cx="4" cy="6" r=".6" fill="#6a6047" opacity=".15"/><circle cx="27" cy="23" r=".4" fill="#6a6047" opacity=".13"/></pattern>
    <pattern id="waves" width="54" height="28" patternUnits="userSpaceOnUse"><path d="M 5 15 q 9 -3 18 0 t 18 0" fill="none" stroke="#547f80" stroke-width=".65" opacity=".35"/></pattern>
    <linearGradient id="paper" x2="1" y2="1"><stop stop-color="#f6eed6"/><stop offset="1" stop-color="#ded2ae"/></linearGradient></defs>
    <rect width="1000" height="750" fill="url(#paper)"/><rect x="15" y="15" width="970" height="720" rx="2" fill="none" stroke="#463e30" stroke-width="1.1"/>
    <rect x="21" y="21" width="958" height="708" fill="none" stroke="#756d50" stroke-width=".5"/>
    <g font-family="Georgia, 'Times New Roman', serif">
<text x="500.0" y="49.0" text-anchor="middle" fill="#463e30" font-size="26" letter-spacing="3">ISTRAVEL</text>
<text x="500.0" y="72.0" text-anchor="middle" fill="#756d50" font-size="11" >Upper glass terraces above older kilns and gardens</text>
<g clip-path="url(#field)">
<rect x="45" y="92" width="910" height="598" fill="#e9dfbd"/>
<path d="M 45.0,92.0 L 955.0,92.0 L 955.0,690.0 L 45.0,690.0 Z" fill="none" stroke="#709a97" stroke-width="13" opacity=".25"/><path d="M 45.0,92.0 L 955.0,92.0 L 955.0,690.0 L 45.0,690.0 Z" fill="#e9dfbd" stroke="#62786a" stroke-width="1.8"/>
<g clip-path="url(#land)">
<ellipse cx="712.0" cy="547.9" rx="123.7" ry="68.6" fill="#aeb995" opacity=".14"/>
<ellipse cx="330.6" cy="545.2" rx="45.5" ry="76.7" fill="#aeb995" opacity=".14"/>
<ellipse cx="305.9" cy="379.0" rx="43.0" ry="57.7" fill="#aeb995" opacity=".14"/>
<ellipse cx="507.0" cy="284.5" rx="67.2" ry="58.0" fill="#aeb995" opacity=".14"/>
<ellipse cx="680.5" cy="125.3" rx="51.8" ry="75.4" fill="#aeb995" opacity=".14"/>
<ellipse cx="232.5" cy="519.8" rx="60.0" ry="41.6" fill="#aeb995" opacity=".14"/>
<ellipse cx="927.4" cy="486.9" rx="82.6" ry="34.4" fill="#aeb995" opacity=".14"/>
<ellipse cx="545.2" cy="468.2" rx="90.2" ry="55.3" fill="#aeb995" opacity=".14"/>
<rect x="388.1" y="251.4" width="10.5" height="7.5" rx="1" fill="#baa98b" stroke="#867c62" stroke-width=".5" opacity=".65" transform="rotate(-10 388.1 251.4)"/>
<rect x="381.4" y="245.2" width="13.0" height="6.2" rx="1" fill="#baa98b" stroke="#867c62" stroke-width=".5" opacity=".65" transform="rotate(4 381.4 245.2)"/>
<rect x="315.7" y="255.7" width="8.1" height="9.1" rx="1" fill="#baa98b" stroke="#867c62" stroke-width=".5" opacity=".65" transform="rotate(16 315.7 255.7)"/>
<rect x="390.8" y="221.6" width="15.0" height="7.9" rx="1" fill="#baa98b" stroke="#867c62" stroke-width=".5" opacity=".65" transform="rotate(14 390.8 221.6)"/>
<rect x="314.1" y="270.0" width="14.8" height="8.3" rx="1" fill="#baa98b" stroke="#867c62" stroke-width=".5" opacity=".65" transform="rotate(14 314.1 270.0)"/>
<rect x="340.3" y="266.5" width="13.5" height="7.3" rx="1" fill="#baa98b" stroke="#867c62" stroke-width=".5" opacity=".65" transform="rotate(-4 340.3 266.5)"/>
<rect x="301.2" y="266.7" width="10.8" height="6.5" rx="1" fill="#baa98b" stroke="#867c62" stroke-width=".5" opacity=".65" transform="rotate(-4 301.2 266.7)"/>
<rect x="301.6" y="226.4" width="10.8" height="7.8" rx="1" fill="#baa98b" stroke="#867c62" stroke-width=".5" opacity=".65" transform="rotate(-6 301.6 226.4)"/>
<rect x="625.8" y="461.9" width="10.5" height="8.4" rx="1" fill="#baa98b" stroke="#867c62" stroke-width=".5" opacity=".65" transform="rotate(-20 625.8 461.9)"/>
<rect x="637.8" y="489.7" width="14.7" height="6.0" rx="1" fill="#baa98b" stroke="#867c62" stroke-width=".5" opacity=".65" transform="rotate(6 637.8 489.7)"/>
<rect x="608.4" y="516.3" width="6.5" height="10.6" rx="1" fill="#baa98b" stroke="#867c62" stroke-width=".5" opacity=".65" transform="rotate(6 608.4 516.3)"/>
<rect x="663.8" y="471.4" width="8.6" height="8.4" rx="1" fill="#baa98b" stroke="#867c62" stroke-width=".5" opacity=".65" transform="rotate(-9 663.8 471.4)"/>
<rect x="676.1" y="509.6" width="7.7" height="8.1" rx="1" fill="#baa98b" stroke="#867c62" stroke-width=".5" opacity=".65" transform="rotate(18 676.1 509.6)"/>
<rect x="598.1" y="518.5" width="12.6" height="9.4" rx="1" fill="#baa98b" stroke="#867c62" stroke-width=".5" opacity=".65" transform="rotate(7 598.1 518.5)"/>
<rect x="594.2" y="490.1" width="6.2" height="10.8" rx="1" fill="#baa98b" stroke="#867c62" stroke-width=".5" opacity=".65" transform="rotate(-10 594.2 490.1)"/>
<rect x="664.4" y="516.6" width="12.5" height="5.7" rx="1" fill="#baa98b" stroke="#867c62" stroke-width=".5" opacity=".65" transform="rotate(-17 664.4 516.6)"/>
<rect x="45" y="92" width="910" height="598" fill="url(#grain)"/></g>
<path d="M 350.0,247.5 L 630.0,495.0" fill="none" stroke="#f4ebd1" stroke-width="7" stroke-linecap="round"/>
<path d="M 350.0,247.5 L 630.0,495.0" fill="none" stroke="#a36b45" stroke-width="2.1" stroke-dasharray="none" stroke-linecap="round"/>
<circle cx="350" cy="247.5" r="4" fill="#463e30" stroke="#f8edcf" stroke-width="1.2"/>
<circle cx="630" cy="495.0" r="4" fill="#463e30" stroke="#f8edcf" stroke-width="1.2"/>
<text x="350.0" y="273.0" text-anchor="middle" fill="#463e30" font-size="12.5" paint-order="stroke" stroke="#ece2c3" stroke-width="3.8" stroke-linejoin="round">Ashglass House</text>
<text x="630.0" y="520.5" text-anchor="middle" fill="#463e30" font-size="12.5" paint-order="stroke" stroke="#ece2c3" stroke-width="3.8" stroke-linejoin="round">The House of Two Hands</text>
</g>
<g transform="translate(934 122)"><path d="M 0 -12 L 5 8 L 0 4 L -5 8 Z" fill="#463e30"/><text x="0.0" y="-17.0" text-anchor="middle" fill="#463e30" font-size="9" >N</text></g>
<path d="M 45 699 H 955" stroke="#a19673" stroke-width=".7"/>
<path d="M 48 713 h 24" stroke="#a36b45" stroke-width="2"/>
<text x="79.0" y="717.0" text-anchor="start" fill="#463e30" font-size="10" >road / path</text>
<path d="M 182 713 h 24" stroke="#3e757d" stroke-width="1.8" stroke-dasharray="5 3"/>
<text x="213.0" y="717.0" text-anchor="start" fill="#463e30" font-size="10" >boat passage</text>
<path d="M 329 709 l 8 8 M 329 717 l 8 -8" stroke="#8e5450" stroke-width="1.5"/>
<text x="344.0" y="717.0" text-anchor="start" fill="#463e30" font-size="10" >closed / uncertain</text>
<text x="951.0" y="715.0" text-anchor="end" fill="#756d50" font-size="9" letter-spacing="1">TRAVELLER’S ATLAS  ·  PRESENT DAY</text>
</g></svg>