<svg xmlns="http://www.w3.org/2000/svg" viewBox="0 0 800 800" role="img" aria-hidden="true">
  <rect width="800" height="800" fill="#f0ece2"/>
  <path d="M0 470 C 160 430, 260 520, 400 500 S 660 430, 800 470 L800 620 C 660 580, 520 660, 400 640 S 140 580, 0 620 Z" fill="#8fa6b8" opacity="0.7"/>
  <rect x="370" y="420" width="60" height="260" rx="8" fill="#cbbda3"/>
  <g stroke="#c4b79c" stroke-width="16" stroke-linecap="round" fill="none">
    <path d="M400 120 L400 420"/><path d="M180 300 L620 300"/>
    <path d="M240 680 L560 680"/><path d="M200 420 L200 700"/><path d="M600 420 L600 700"/>
  </g>
  <g fill="#ded4c1">
    <rect x="230" y="190" width="90" height="70" rx="6"/><rect x="470" y="190" width="90" height="70" rx="6"/>
    <rect x="150" y="520" width="80" height="60" rx="6"/><rect x="520" y="520" width="80" height="60" rx="6"/>
    <rect x="330" y="720" width="140" height="50" rx="6"/>
  </g>
</svg>
